<?xml version="1.0" encoding="UTF-8"?>
<svg id="Laag_1" xmlns="http://www.w3.org/2000/svg" version="1.1" viewBox="0 0 1417.32 1417.32">
  <!-- Generator: Adobe Illustrator 29.7.1, SVG Export Plug-In . SVG Version: 2.1.1 Build 8)  -->
  <defs>
    <style>
      .st0 {
        fill: #2a3a42;
      }

      .st0, .st1 {
        fill-rule: evenodd;
      }

      .st1 {
        fill: #fff;
      }

      .st2 {
        fill: #ec6063;
      }

      .st3 {
        fill: #f18e8d;
      }

      .st4 {
        fill: #d53431;
      }

      .st5 {
        fill: #f2f2f2;
      }

      .st6 {
        fill: #e9463a;
      }

      .st7 {
        fill: #ed6a68;
      }

      .st8 {
        fill: #a72817;
      }
    </style>
  </defs>
  <rect class="st5" x="113.83" y="324.4" width="1189.67" height="768.52" rx="124.67" ry="124.67"/>
  <g>
    <path class="st4" d="M538.3,602.41s-4.52,5.24-7.52,15-1.68,19.72-1.68,19.72c0,0,15.08,7.88,40.28,9,20.76.92,31.8-2.8,47.6-14.36s42.64,7.04,54.76,12.68,120,47.32,120,47.32l78.48,4.88s3-8.64,0-29.28-21.76-37.16-36.4-43.16-24.04-6.76-24.04-6.76l-95.8-56.32s-26.4-1.84-53.32,4.12c-20.24,4.52-63.04,43.56-87.84,42.8s-34.52-5.64-34.52-5.64h0Z"/>
    <path class="st6" d="M713.78,536.53l-10.4-55.64s4.96-7.64,14.92-9.32c9.96-1.68,17.44,3.2,17.44,3.2l9.4,64.4h7.52l7.12-58.2s4.12-4.88,16.72-2.92c11.64,1.84,13.56,7.08,13.56,7.08l-6.4,59.84-67.2,28.36-29.64-3.56-37.36-54.64s1.12-9.2,10.32-14.44,15.76-4.32,15.76-4.32l35.68,52,3.2-3.2-.64-8.64h0Z"/>
    <path class="st6" d="M778.54,622.49s8.16-4.32,17.84-5.24,13.32.2,13.32.2c0,0,14-18.32,0-50.96s-59.32-41.12-84.08-32.96-55.48,27.6-58.84,67c-3.36,39.4-4.52,59.68-4.52,59.68l23.92,12.4,93.96-14.72-1.6-35.4h0Z"/>
    <path class="st4" d="M751.9,561.97s7.32,3.36,19.88-1.12c15-5.36,42.8-13.24,53.48-18.32s19.72-14.64,25.92-16.32,21.56-.84,28.88,14.36-5.8,28.44-5.8,28.44l-68.72,16.88-25.36,27.6-6.2,27.6v23.64l114.24,87.32s1.76,29.24-14,74.28c-15.76,45.04-29.8,74.92-35.96,86.2s-5.88,25.36-22.08,32.08c-16.2,6.76-48.88-10.68-86.6-27.04-37.72-16.32-85.6-46.72-104.16-70.96s-34.36-49.56-38.84-87.28c-4.48-37.72,12.4-76.6,30.96-86.72,18.6-10.12,62.52-7.88,62.52-7.88,0,0,2.56-5.08,20.12-10.68s29.4-7.32,29.4-7.32l-4.52-29.84,3.16-34.04,23.68-20.88h0Z"/>
    <path class="st2" d="M801.66,681.05s14.64-14.08,36.04-11.84,42,24.76,47.04,43.92c5.08,19.16,4.96,44.68,0,63.08-4.32,16.12-24.36,56.32-51,56.32-12.4,0-16.12-9.92-16.96-14.52-.84-4.64,6.44,31.4-11.76,38.72-17.32,6.96-15-4.52-15-4.52l7.68-18s-32.84-59.6-48.04-78.2c-15.2-18.6-62.32-55.84-60.64-73.28,1.68-17.44,6.2-24.76,23.08-28.16,16.88-3.36,37.16,0,37.16,0l32.24,16.36,20.16,10.12h0Z"/>
    <path class="st7" d="M682.82,714.65s-9.76,17.28-22.92,0c-13.12-17.28-24.04-33.4-22.92-70.56s3-55.92-1.88-75.44-6.44-30.72-6.44-30.72l-13.08,12.36-12.44,2.96-8.24-4.48s-7.12,1.12-4.48,4.12,12.36,15.8,16.48,24c5.44,10.88,10.88,47.68-.48,70.2-13.68,27.16-18.32,49.56-15,72.48,2.48,17.08,20.88,39.04,20.88,39.04l13.68,9.76,30.8-2.64,24.04-25.16,2-25.92h0Z"/>
    <path class="st3" d="M625.02,517.37c-12.2-1.8-29.44,6.96-34.48,18.6-4.72,10.8-2.28,22.32,11.52,20.08s20.8-9.6,23.36-11.84,9.64,24.24,11.28,40c1.68,15.76.24,52.16,0,65.04-.32,17.64,4.72,64.08,20.8,73.44,11.2,6.52,19.88-2.2,27.2-3.16l-3-24.68-11.84-36.88s-1.24-1.6-4.32-9.4c-3.08-7.8-3.28-59.68-8.92-86.08-3.6-16.84-15.52-42.72-31.6-45.12h0Z"/>
    <path class="st8" d="M862.46,536.61c-2.28,3.56-1.96,16.88-1.96,16.88,0,0-35.2,10.6-51.8,19.8s-35.04,23.16-40.4,45.4c-5.36,22.24,1.96,37.56,1.96,37.56,0,0-10.92-5.04-19.88-8.16-7.68-2.68-15.12-4.24-15.12-4.24,0,0-.64-17.44-2.04-22.8s-4.8-11.56-4.8-18.32,4.04-18.88,9.4-26.28c4.8-6.64,15.68-13.96,15.68-13.96,0,0-.56-.8-4.88-.96-8.92-.4-21.04,9.4-26.64,24.04-5.64,14.64-3.08,36.76-2.8,46.44.2,6.48.56,12.92.56,12.92,0,0-11.28,1.44-19.56,3.72-8.32,2.24-22.4,12.4-22.4,12.4,0,0-4.52-3.2-7.6-7.96-3-4.64-6.44-16.76-6.44-16.76,0,0,1.92,24.2,6.44,36.28,4.52,12.12,11.84,41.24,8.16,56.32-5.08,20.84-19.88,32.2-37.36,32.48-17.48.28-30.36-11.16-37.92-24.76-5.64-10.2-12.48-34.88-12.48-34.88,0,0-2.68,9.84-2.28,18.44.4,8.6,4.52,29.12,21.6,42.8,15.12,12.12,26.76,11.8,35.76,11.24,16.6-1.04,37.08-17.56,41.84-38.4s-.2-39.88-1.6-46.08c-1.4-6.2-4.52-17.16-4.52-17.16,0,0,14.08-14.92,30.68-18s45.04,6.2,57.44,14.08,42.44,33.32,40.72,52.2-13.72,31.8-18.48,37.92c-6.28,8.08-14.56,13.72-12.68,17.72,2.68,5.72,11-.56,17.16-5.36,6.2-4.8,14.36-15.2,18.32-21.68s7.32-17.36,7.32-17.36c0,0,10.12,8.8,13.52,23.92,3.36,15.12-1.68,35.12,4.8,34s8.68-19.44,7.32-36.32c-1.36-16.56-11.56-27.64-17.16-33.4s-8.44-11.08-8.44-11.08c0,0-10.28-26.16-22.92-36.64-16.32-13.52-20.08-43.88-12.28-57.72,10.16-18.04,24.44-28,40.84-31.52,23.08-4.96,34.44-4.24,45-5.24,9.24-.88,13.6-11.36,12.2-22.92s-6.76-20.04-12.8-22.68c-4.88-2.16-8.08,1.92-9.48,4.08h0Z"/>
    <path class="st8" d="M636.5,770.61s8.6,26.76,8.6,38.28-1,23.8-8.6,30.12c-7.56,6.28,9.72,7.04,14.96-2.04,6.92-12.04,4.92-20.48,4.92-20.48l8.08,9.08s8.4,23.6,20.28,37.64c12.96,15.28,22.92,18.12,37.72,18.12s17.16-6.84,10.88-7.32c-6.68-.48-19.96-.72-29.28-6.64-9.28-5.92-13.8-12.6-19.92-22.64-2.76-4.52-7.88-17.08-7.88-17.08,0,0,12.72,5.64,17.44,0,4.04-4.8-13.32-7.64-18.2-10.32-8.24-4.52-12.76-11.84-16.6-19.12-3.52-6.72-10.4-27.64-10.4-27.64h-12v.04h0Z"/>
    <path class="st8" d="M805.94,752.57s.92,24.76-.56,41.12c-1.52,16.32-4.68,32.28-11.28,42.8-4.44,7.12-12.36,13.52-14.44,17.84-2.24,4.56,2.44,7.48,7.32,4.68s13.32-11.08,17.28-19.32c2.08-4.32,6.96-16.32,6.96-16.32,0,0,5.08,19.72,8.24,25.36,3.2,5.64,8.08,17.28,13.12,15s-.44-11.32-1.88-15.2c-1.8-4.8-6-16.16-8.24-25.72s-3.6-42.2-3.6-50.84-1.12-28.2-2.8-35.32-10.12,15.92-10.12,15.92h0Z"/>
    <path class="st6" d="M597.26,544.97c2.24,4.76,9.88,3.4,19.2-3.4,9.8-7.16,11.52-14.16,6.88-17.4-4.36-3.08-12.68-.32-18.36,4.04-6.36,4.88-10.36,11.04-7.72,16.76h0Z"/>
  </g>
  <g>
    <path class="st0" d="M649.62,539.9c0,20.56-16.67,37.23-37.23,37.23s-37.23-16.67-37.23-37.23,16.67-37.23,37.23-37.23,37.23,16.67,37.23,37.23h0ZM620.25,526.57l5.52,5.52c3.74,3.75,5.62,5.62,5.18,7.64s-2.92,2.95-7.87,4.81l-3.43,1.29c-1.33.5-1.99.75-2.5,1.19-.22.19-.43.41-.6.66-.4.55-.58,1.23-.96,2.6-.86,3.11-1.28,4.67-2.31,5.25-.43.25-.92.37-1.41.37-1.17,0-2.31-1.14-4.6-3.43l-1.76-1.76-6.03,6.04c-1.09,1.09-2.86,1.09-3.95,0s-1.09-2.86,0-3.95l6.03-6.04h0l-1.66-1.67c-2.27-2.27-3.4-3.4-3.41-4.57,0-.5.13-1,.38-1.44.58-1.01,2.13-1.44,5.22-2.29,1.37-.38,2.06-.57,2.61-.96.25-.18.47-.39.67-.62.44-.52.69-1.18,1.17-2.52l1.24-3.39c1.84-5.01,2.75-7.52,4.78-7.97s3.91,1.44,7.68,5.22h0v.02Z"/>
    <path class="st1" d="M630.95,539.74c-.44,2.02-2.92,2.95-7.87,4.81l-3.43,1.29c-1.33.5-1.99.75-2.5,1.19-.22.19-.43.41-.6.66-.4.55-.58,1.23-.96,2.6-.86,3.11-1.28,4.67-2.31,5.25-.43.25-.92.37-1.41.37-1.17,0-2.31-1.14-4.6-3.43l-1.76-1.76-6.03,6.04c-1.09,1.09-2.86,1.09-3.95,0s-1.09-2.86,0-3.95l6.03-6.04-1.66-1.67c-2.27-2.27-3.4-3.4-3.41-4.57,0-.5.13-1,.38-1.44.58-1.01,2.13-1.44,5.22-2.29,1.37-.38,2.06-.57,2.61-.96.25-.18.47-.39.67-.62.44-.52.69-1.18,1.17-2.52l1.24-3.39c1.84-5.01,2.75-7.52,4.78-7.97s3.91,1.44,7.68,5.22h0l5.52,5.52c3.74,3.75,5.62,5.62,5.18,7.64h0v.02Z"/>
  </g>
  <g>
    <path class="st0" d="M853.15,918.56c0,20.56-16.67,37.23-37.23,37.23s-37.23-16.67-37.23-37.23,16.67-37.23,37.23-37.23,37.23,16.67,37.23,37.23h0ZM823.77,905.22l5.52,5.52c3.74,3.75,5.62,5.62,5.18,7.64s-2.92,2.95-7.87,4.81l-3.43,1.29c-1.33.5-1.99.75-2.5,1.19-.22.19-.43.41-.6.66-.4.55-.58,1.23-.96,2.6-.86,3.11-1.28,4.67-2.31,5.25-.43.25-.92.37-1.41.37-1.17,0-2.31-1.14-4.6-3.43l-1.76-1.76-6.03,6.04c-1.09,1.09-2.86,1.09-3.95,0s-1.09-2.86,0-3.95l6.03-6.04h0l-1.66-1.67c-2.27-2.27-3.4-3.4-3.41-4.57,0-.5.13-1,.38-1.44.58-1.01,2.13-1.44,5.22-2.29,1.37-.38,2.06-.57,2.61-.96.25-.18.47-.39.67-.62.44-.52.69-1.18,1.17-2.52l1.24-3.39c1.84-5.01,2.75-7.52,4.78-7.97s3.91,1.44,7.68,5.22h0v.02Z"/>
    <path class="st1" d="M834.47,918.39c-.44,2.02-2.92,2.95-7.87,4.81l-3.43,1.29c-1.33.5-1.99.75-2.5,1.19-.22.19-.43.41-.6.66-.4.55-.58,1.23-.96,2.6-.86,3.11-1.28,4.67-2.31,5.25-.43.25-.92.37-1.41.37-1.17,0-2.31-1.14-4.6-3.43l-1.76-1.76-6.03,6.04c-1.09,1.09-2.86,1.09-3.95,0s-1.09-2.86,0-3.95l6.03-6.04-1.66-1.67c-2.27-2.27-3.4-3.4-3.41-4.57,0-.5.13-1,.38-1.44.58-1.01,2.13-1.44,5.22-2.29,1.37-.38,2.06-.57,2.61-.96.25-.18.47-.39.67-.62.44-.52.69-1.18,1.17-2.52l1.24-3.39c1.84-5.01,2.75-7.52,4.78-7.97s3.91,1.44,7.68,5.22h0l5.52,5.52c3.74,3.75,5.62,5.62,5.18,7.64h0v.02Z"/>
  </g>
  <g>
    <path class="st0" d="M908.78,653.08c0,20.56-16.67,37.23-37.23,37.23s-37.23-16.67-37.23-37.23,16.67-37.23,37.23-37.23,37.23,16.67,37.23,37.23h0ZM879.41,639.75l5.52,5.52c3.74,3.75,5.62,5.62,5.18,7.64s-2.92,2.95-7.87,4.81l-3.43,1.29c-1.33.5-1.99.75-2.5,1.19-.22.19-.43.41-.6.66-.4.55-.58,1.23-.96,2.6-.86,3.11-1.28,4.67-2.31,5.25-.43.25-.92.37-1.41.37-1.17,0-2.31-1.14-4.6-3.43l-1.76-1.76-6.03,6.04c-1.09,1.09-2.86,1.09-3.95,0s-1.09-2.86,0-3.95l6.03-6.04h0l-1.66-1.67c-2.27-2.27-3.4-3.4-3.41-4.57,0-.5.13-1,.38-1.44.58-1.01,2.13-1.44,5.22-2.29,1.37-.38,2.06-.57,2.61-.96.25-.18.47-.39.67-.62.44-.52.69-1.18,1.17-2.52l1.24-3.39c1.84-5.01,2.75-7.52,4.78-7.97s3.91,1.44,7.68,5.22h0v.02Z"/>
    <path class="st1" d="M890.11,652.91c-.44,2.02-2.92,2.95-7.87,4.81l-3.43,1.29c-1.33.5-1.99.75-2.5,1.19-.22.19-.43.41-.6.66-.4.55-.58,1.23-.96,2.6-.86,3.11-1.28,4.67-2.31,5.25-.43.25-.92.37-1.41.37-1.17,0-2.31-1.14-4.6-3.43l-1.76-1.76-6.03,6.04c-1.09,1.09-2.86,1.09-3.95,0s-1.09-2.86,0-3.95l6.03-6.04-1.66-1.67c-2.27-2.27-3.4-3.4-3.41-4.57,0-.5.13-1,.38-1.44.58-1.01,2.13-1.44,5.22-2.29,1.37-.38,2.06-.57,2.61-.96.25-.18.47-.39.67-.62.44-.52.69-1.18,1.17-2.52l1.24-3.39c1.84-5.01,2.75-7.52,4.78-7.97s3.91,1.44,7.68,5.22h0l5.52,5.52c3.74,3.75,5.62,5.62,5.18,7.64h0v.02Z"/>
  </g>
</svg>